# xmcd CD database file
#
# Track frame offsets:
#	150
#	12242
#	26332
#	34465
#	40042
#	55272
#	58750
#	94850
#	101507
#	114667
#	123620
#	143620
#	161447
#	179180
#	204155
#	218200
#	235312
#	249407
#	277510
#
# Disc length: 4101 seconds
#
# Revision: 0
# Processed by: cddbd v1.5.2PL0 Copyright (c) Steve Scherf et al.
# Submitted via: CDex 1.70beta2
#
DISCID=06100313
DTITLE=警視庁音楽隊 - 警視庁音楽隊 創設５０周年 Vol.1　音で綴る日本の吹奏楽のあゆみ 「都民と共に５０年!!」
DYEAR=1900
DGENRE=管弦楽
TTITLE0=「隆豊賀（りゅうほうが）」より「音取り（ねとり）」
TTITLE1=ヤッパンマルシュ
TTITLE2=「慶応喇叭符号 全」より「陣営」
TTITLE3=君が代(演奏）
TTITLE4=君が代（ソプラノ：大倉由紀枝）
TTITLE5=君が代（演奏）
TTITLE6=扶桑歌行進曲
TTITLE7=抜刀隊
TTITLE8=分列行進曲
TTITLE9=国の鎮め
TTITLE10=哀之極（かなしみのきわみ）第１番
TTITLE11=山櫻行進曲
TTITLE12=走れ大地よ
TTITLE13=行進曲「大日本」
TTITLE14=君が代行進曲
TTITLE15=行進曲「大空」
TTITLE16=オリンピック・マーチ
TTITLE17=祝典行進曲
TTITLE18=新・祝典行進曲
EXTD=
EXTT0=
EXTT1=
EXTT2=
EXTT3=
EXTT4=
EXTT5=
EXTT6=
EXTT7=
EXTT8=
EXTT9=
EXTT10=
EXTT11=
EXTT12=
EXTT13=
EXTT14=
EXTT15=
EXTT16=
EXTT17=
EXTT18=
PLAYORDER=
